<svg xmlns="http://www.w3.org/2000/svg" viewBox="0 0 200 250" width="200" height="250"><defs><filter id="blur" x="-50%" y="-50%" width="200%" height="200%"><feGaussianBlur stdDeviation="3"/></filter><linearGradient id="steel" x1="0" y1="0" x2="1" y2="1"><stop offset="0" stop-color="#eef2f6"/><stop offset="0.45" stop-color="#a9b4c0"/><stop offset="1" stop-color="#3c4550"/></linearGradient><linearGradient id="steelD" x1="0" y1="0" x2="1" y2="1"><stop offset="0" stop-color="#8a96a3"/><stop offset="1" stop-color="#262c34"/></linearGradient><linearGradient id="gold" x1="0" y1="0" x2="1" y2="1"><stop offset="0" stop-color="#fff0b0"/><stop offset="0.5" stop-color="#d4a84a"/><stop offset="1" stop-color="#6e4a12"/></linearGradient><linearGradient id="leather" x1="0" y1="0" x2="0" y2="1"><stop offset="0" stop-color="#6b4a30"/><stop offset="1" stop-color="#2a1a10"/></linearGradient><linearGradient id="fur" x1="0" y1="0" x2="0" y2="1"><stop offset="0" stop-color="#7a4428"/><stop offset="1" stop-color="#2a120a"/></linearGradient><radialGradient id="skin" cx="40%" cy="35%" r="70%"><stop offset="0" stop-color="#9a5a3a"/><stop offset="1" stop-color="#3a1a0e"/></radialGradient><linearGradient id="horn" x1="0" y1="0" x2="1" y2="1"><stop offset="0" stop-color="#f4ead2"/><stop offset="1" stop-color="#6e5a3a"/></linearGradient><linearGradient id="wood" x1="0" y1="0" x2="0" y2="1"><stop offset="0" stop-color="#5a3a22"/><stop offset="1" stop-color="#1e1008"/></linearGradient><linearGradient id="loin" x1="0" y1="0" x2="0" y2="1"><stop offset="0" stop-color="#3a3f46"/><stop offset="1" stop-color="#121418"/></linearGradient></defs><g transform="translate(100 250) scale(1.06) translate(-100 -250)"><path d="M63.8 66.0 Q60.5 86.0 60.4 96.0 Q61.4 106.0 59.7 113.2 Q59.3 120.4 58.7 131.2 L59.2 142.0 L72.2 142.0 Q74.6 120.4 75.0 113.2 Q74.1 106.0 77.6 96.0 Q80.0 86.0 81.5 76.0 L81.8 66.0 Z" fill="url(#skin)" stroke="#0b0d12" stroke-width="2.2" stroke-linejoin="round" stroke-linecap="round"/><path d="M72.8 66.0 L64.8 68.0 L59.8 140.0 L65.8 140.0 Z" fill="#000" fill-opacity="0.22"/><path d="M58.8 128.0 L72.8 128.0 L72.2 141.0 L59.2 141.0 Z" fill="url(#steelD)" stroke="#0b0d12" stroke-width="2.2" stroke-linejoin="round" stroke-linecap="round"/><circle cx="65.8" cy="147.0" r="6.5" fill="url(#skin)" stroke="#0b0d12" stroke-width="2.2" stroke-linejoin="round" stroke-linecap="round"/><path d="M61.8 70.0 Q72.8 55.0 83.8 70.0 Q72.8 66.0 61.8 70.0 Z" fill="url(#steelD)" stroke="#0b0d12" stroke-width="2.2" stroke-linejoin="round" stroke-linecap="round"/><path d="M69.8 60.0 L72.8 51.0 L75.8 60.0 Z" fill="url(#steel)" stroke="#0b0d12" stroke-width="1" stroke-linejoin="round" stroke-linecap="round"/><path d="M65.8 152.0 q-4 8 0 14 q4 6 0 12" fill="none" stroke="#8a8f96" stroke-width="2.2" stroke-opacity="1.0" stroke-linecap="round" stroke-linejoin="round"/></g></svg>