<svg xmlns="http://www.w3.org/2000/svg" viewBox="0 0 200 250" width="200" height="250"><defs><filter id="blur" x="-50%" y="-50%" width="200%" height="200%"><feGaussianBlur stdDeviation="3"/></filter><linearGradient id="steel" x1="0" y1="0" x2="1" y2="1"><stop offset="0" stop-color="#eef2f6"/><stop offset="0.45" stop-color="#a9b4c0"/><stop offset="1" stop-color="#3c4550"/></linearGradient><linearGradient id="steelD" x1="0" y1="0" x2="1" y2="1"><stop offset="0" stop-color="#8a96a3"/><stop offset="1" stop-color="#262c34"/></linearGradient><linearGradient id="gold" x1="0" y1="0" x2="1" y2="1"><stop offset="0" stop-color="#fff0b0"/><stop offset="0.5" stop-color="#d4a84a"/><stop offset="1" stop-color="#6e4a12"/></linearGradient><linearGradient id="leather" x1="0" y1="0" x2="0" y2="1"><stop offset="0" stop-color="#6b4a30"/><stop offset="1" stop-color="#2a1a10"/></linearGradient><linearGradient id="fur" x1="0" y1="0" x2="0" y2="1"><stop offset="0" stop-color="#7a4428"/><stop offset="1" stop-color="#2a120a"/></linearGradient><radialGradient id="skin" cx="40%" cy="35%" r="70%"><stop offset="0" stop-color="#9a5a3a"/><stop offset="1" stop-color="#3a1a0e"/></radialGradient><linearGradient id="horn" x1="0" y1="0" x2="1" y2="1"><stop offset="0" stop-color="#f4ead2"/><stop offset="1" stop-color="#6e5a3a"/></linearGradient><linearGradient id="wood" x1="0" y1="0" x2="0" y2="1"><stop offset="0" stop-color="#5a3a22"/><stop offset="1" stop-color="#1e1008"/></linearGradient><linearGradient id="loin" x1="0" y1="0" x2="0" y2="1"><stop offset="0" stop-color="#3a3f46"/><stop offset="1" stop-color="#121418"/></linearGradient></defs><g transform="translate(100 250) scale(1.06) translate(-100 -250)"><path d="M73.8 57.0 Q100 49.0 126.2 57.0 L131.2 70.0 Q130.2 88.0 118.0 112 L117.2 130 Q100 136 82.8 130 L82.0 112 Q69.8 88.0 68.8 70.0 Z" fill="url(#skin)" stroke="#0b0d12" stroke-width="2.2" stroke-linejoin="round" stroke-linecap="round"/><path d="M100 52 L131.2 70 Q130.2 88.0 118.0 112 L100 112 Z" fill="#000" fill-opacity="0.25"/><path d="M76.6 78.0 Q90.6 86.0 100 78.0 Q109.4 86.0 123.4 78.0" fill="none" stroke="#0b0d12" stroke-width="1.4" stroke-opacity="0.55" stroke-linecap="round" stroke-linejoin="round"/><path d="M94.0 90.0 L106.0 90.0" fill="none" stroke="#0b0d12" stroke-width="1.1" stroke-opacity="0.4" stroke-linecap="round" stroke-linejoin="round"/><path d="M94.0 99.0 L106.0 99.0" fill="none" stroke="#0b0d12" stroke-width="1.1" stroke-opacity="0.4" stroke-linecap="round" stroke-linejoin="round"/><path d="M94.0 108.0 L106.0 108.0" fill="none" stroke="#0b0d12" stroke-width="1.1" stroke-opacity="0.4" stroke-linecap="round" stroke-linejoin="round"/><path d="M100 80.0 L100 110" fill="none" stroke="#0b0d12" stroke-width="1.1" stroke-opacity="0.45" stroke-linecap="round" stroke-linejoin="round"/><path d="M72.8 64 L80.8 60 L120.0 110 L112.0 116 Z" fill="url(#leather)" stroke="#0b0d12" stroke-width="2.2" stroke-linejoin="round" stroke-linecap="round"/><circle cx="87.1" cy="76.0" r="1.8" fill="#8a8f96" stroke="#0b0d12" stroke-width="0.8" stroke-linejoin="round" stroke-linecap="round"/><circle cx="97.4" cy="88.0" r="1.8" fill="#8a8f96" stroke="#0b0d12" stroke-width="0.8" stroke-linejoin="round" stroke-linecap="round"/><circle cx="107.7" cy="100.0" r="1.8" fill="#8a8f96" stroke="#0b0d12" stroke-width="0.8" stroke-linejoin="round" stroke-linecap="round"/><path d="M80.0 110 Q100 116 120.0 110 L120.0 119 Q100 125 80.0 119 Z" fill="url(#leather)" stroke="#0b0d12" stroke-width="2.2" stroke-linejoin="round" stroke-linecap="round"/><path d="M85.0 118 L115.0 118 L112.0 160.0 L88.0 160.0 Z" fill="url(#loin)" stroke="#0b0d12" stroke-width="2.2" stroke-linejoin="round" stroke-linecap="round"/><circle cx="100.0" cy="115.0" r="4.2" fill="#8a8f96" stroke="#0b0d12" stroke-width="2.2" stroke-linejoin="round" stroke-linecap="round"/></g></svg>