<svg xmlns="http://www.w3.org/2000/svg" viewBox="0 0 200 250" width="200" height="250"><defs><filter id="blur" x="-50%" y="-50%" width="200%" height="200%"><feGaussianBlur stdDeviation="3"/></filter><linearGradient id="steel" x1="0" y1="0" x2="1" y2="1"><stop offset="0" stop-color="#eef2f6"/><stop offset="0.45" stop-color="#a9b4c0"/><stop offset="1" stop-color="#3c4550"/></linearGradient><linearGradient id="steelD" x1="0" y1="0" x2="1" y2="1"><stop offset="0" stop-color="#8a96a3"/><stop offset="1" stop-color="#262c34"/></linearGradient><linearGradient id="gold" x1="0" y1="0" x2="1" y2="1"><stop offset="0" stop-color="#fff0b0"/><stop offset="0.5" stop-color="#d4a84a"/><stop offset="1" stop-color="#6e4a12"/></linearGradient><linearGradient id="leather" x1="0" y1="0" x2="0" y2="1"><stop offset="0" stop-color="#6b4a30"/><stop offset="1" stop-color="#2a1a10"/></linearGradient><linearGradient id="tabard" x1="0" y1="0" x2="0" y2="1"><stop offset="0" stop-color="#b3261e"/><stop offset="1" stop-color="#4a0c0c"/></linearGradient><linearGradient id="cape" x1="0" y1="0" x2="0" y2="1"><stop offset="0" stop-color="#7a1616"/><stop offset="1" stop-color="#240505"/></linearGradient><linearGradient id="shieldred" x1="0" y1="0" x2="1" y2="1"><stop offset="0" stop-color="#9c1f1a"/><stop offset="1" stop-color="#3e0808"/></linearGradient><radialGradient id="visor" cx="40%" cy="35%" r="70%"><stop offset="0" stop-color="#ffd27a"/><stop offset="1" stop-color="#ff7a1a"/></radialGradient></defs><path d="M83.0 58.3 L82.7 39.6 Q83.0 21.8 100.0 20.9 Q117.0 21.8 118.4 39.6 L117.3 58.3 Q100.0 64.2 83.0 58.3 Z" fill="url(#steel)" stroke="#0b0d12" stroke-width="2.7" stroke-linejoin="round" stroke-linecap="round"/><path d="M103.4 22.6 Q117.0 26.0 117.8 43.0 L117.0 58.3 Q108.5 60.0 105.1 60.0 Z" fill="#000" fill-opacity="0.22"/><circle cx="104.2" cy="42.1" r="11.9" fill="#ff9a3a" fill-opacity="0.55" filter="url(#blur)"/><path d="M87.2 39.9 L116.2 39.9 L116.2 43.9 L87.2 43.9 Z" fill="url(#visor)" stroke="#0b0d12" stroke-width="1.89" stroke-linejoin="round" stroke-linecap="round"/><path d="M100.8 43.9 L103.4 43.9 L103.4 54.9 L100.8 54.9 Z" fill="#1a1206" stroke="#0b0d12" stroke-width="1.35" stroke-linejoin="round" stroke-linecap="round"/><circle cx="109.3" cy="48.1" r="0.9" fill="#0b0d12" stroke="#0b0d12" stroke-width="0" stroke-linejoin="round" stroke-linecap="round"/><circle cx="109.3" cy="51.2" r="0.9" fill="#0b0d12" stroke="#0b0d12" stroke-width="0" stroke-linejoin="round" stroke-linecap="round"/><circle cx="109.3" cy="54.2" r="0.9" fill="#0b0d12" stroke="#0b0d12" stroke-width="0" stroke-linejoin="round" stroke-linecap="round"/><path d="M96.6 21.2 L96.6 61.7" fill="none" stroke="#c9a24a" stroke-width="1.6099999999999999" stroke-opacity="0.9" stroke-linecap="round" stroke-linejoin="round"/><path d="M98.3 21.2 Q84.7 2.2 55.8 24.3 Q72.8 22.6 77.9 32.8 Q89.8 20.9 98.3 21.2 Z" fill="url(#tabard)" stroke="#0b0d12" stroke-width="2.7" stroke-linejoin="round" stroke-linecap="round"/></svg>