<svg xmlns="http://www.w3.org/2000/svg" viewBox="0 0 200 250" width="200" height="250"><defs><filter id="blur" x="-50%" y="-50%" width="200%" height="200%"><feGaussianBlur stdDeviation="3"/></filter><linearGradient id="steel" x1="0" y1="0" x2="1" y2="1"><stop offset="0" stop-color="#eef2f6"/><stop offset="0.45" stop-color="#a9b4c0"/><stop offset="1" stop-color="#3c4550"/></linearGradient><linearGradient id="steelD" x1="0" y1="0" x2="1" y2="1"><stop offset="0" stop-color="#8a96a3"/><stop offset="1" stop-color="#262c34"/></linearGradient><linearGradient id="gold" x1="0" y1="0" x2="1" y2="1"><stop offset="0" stop-color="#fff0b0"/><stop offset="0.5" stop-color="#d4a84a"/><stop offset="1" stop-color="#6e4a12"/></linearGradient><linearGradient id="leather" x1="0" y1="0" x2="0" y2="1"><stop offset="0" stop-color="#6b4a30"/><stop offset="1" stop-color="#2a1a10"/></linearGradient><linearGradient id="tabard" x1="0" y1="0" x2="0" y2="1"><stop offset="0" stop-color="#b3261e"/><stop offset="1" stop-color="#4a0c0c"/></linearGradient><linearGradient id="cape" x1="0" y1="0" x2="0" y2="1"><stop offset="0" stop-color="#7a1616"/><stop offset="1" stop-color="#240505"/></linearGradient><linearGradient id="shieldred" x1="0" y1="0" x2="1" y2="1"><stop offset="0" stop-color="#9c1f1a"/><stop offset="1" stop-color="#3e0808"/></linearGradient><radialGradient id="visor" cx="40%" cy="35%" r="70%"><stop offset="0" stop-color="#ffd27a"/><stop offset="1" stop-color="#ff7a1a"/></radialGradient></defs><path d="M86.5 48.1 L86.2 33.3 Q86.5 19.1 100.0 18.4 Q113.5 19.1 114.6 33.3 L113.8 48.1 Q100.0 52.9 86.5 48.1 Z" fill="url(#steel)" stroke="#0b0d12" stroke-width="2.2" stroke-linejoin="round" stroke-linecap="round"/><path d="M102.7 19.8 Q113.5 22.5 114.2 36.0 L113.5 48.1 Q106.8 49.5 104.0 49.5 Z" fill="#000" fill-opacity="0.22"/><circle cx="103.4" cy="35.3" r="9.4" fill="#ff9a3a" fill-opacity="0.55" filter="url(#blur)"/><path d="M89.9 33.6 L112.8 33.6 L112.8 36.7 L89.9 36.7 Z" fill="url(#visor)" stroke="#0b0d12" stroke-width="1.54" stroke-linejoin="round" stroke-linecap="round"/><path d="M100.7 36.7 L102.7 36.7 L102.7 45.5 L100.7 45.5 Z" fill="#1a1206" stroke="#0b0d12" stroke-width="1.1" stroke-linejoin="round" stroke-linecap="round"/><circle cx="107.4" cy="40.0" r="0.7" fill="#0b0d12" stroke="#0b0d12" stroke-width="0" stroke-linejoin="round" stroke-linecap="round"/><circle cx="107.4" cy="42.5" r="0.7" fill="#0b0d12" stroke="#0b0d12" stroke-width="0" stroke-linejoin="round" stroke-linecap="round"/><circle cx="107.4" cy="44.9" r="0.7" fill="#0b0d12" stroke="#0b0d12" stroke-width="0" stroke-linejoin="round" stroke-linecap="round"/><path d="M97.3 18.7 L97.3 50.9" fill="none" stroke="#c9a24a" stroke-width="1.4" stroke-opacity="0.9" stroke-linecap="round" stroke-linejoin="round"/><path d="M98.7 18.7 Q87.8 3.6 64.9 21.1 Q78.4 19.8 82.5 27.9 Q91.9 18.4 98.7 18.7 Z" fill="url(#tabard)" stroke="#0b0d12" stroke-width="2.2" stroke-linejoin="round" stroke-linecap="round"/></svg>