<svg xmlns="http://www.w3.org/2000/svg" viewBox="0 0 200 250" width="200" height="250"><defs><filter id="blur" x="-50%" y="-50%" width="200%" height="200%"><feGaussianBlur stdDeviation="3"/></filter><linearGradient id="steel" x1="0" y1="0" x2="1" y2="1"><stop offset="0" stop-color="#eef2f6"/><stop offset="0.45" stop-color="#a9b4c0"/><stop offset="1" stop-color="#3c4550"/></linearGradient><linearGradient id="steelD" x1="0" y1="0" x2="1" y2="1"><stop offset="0" stop-color="#8a96a3"/><stop offset="1" stop-color="#262c34"/></linearGradient><linearGradient id="gold" x1="0" y1="0" x2="1" y2="1"><stop offset="0" stop-color="#fff0b0"/><stop offset="0.5" stop-color="#d4a84a"/><stop offset="1" stop-color="#6e4a12"/></linearGradient><linearGradient id="leather" x1="0" y1="0" x2="0" y2="1"><stop offset="0" stop-color="#6b4a30"/><stop offset="1" stop-color="#2a1a10"/></linearGradient><linearGradient id="tabard" x1="0" y1="0" x2="0" y2="1"><stop offset="0" stop-color="#b3261e"/><stop offset="1" stop-color="#4a0c0c"/></linearGradient><linearGradient id="cape" x1="0" y1="0" x2="0" y2="1"><stop offset="0" stop-color="#7a1616"/><stop offset="1" stop-color="#240505"/></linearGradient><linearGradient id="shieldred" x1="0" y1="0" x2="1" y2="1"><stop offset="0" stop-color="#9c1f1a"/><stop offset="1" stop-color="#3e0808"/></linearGradient><radialGradient id="visor" cx="40%" cy="35%" r="70%"><stop offset="0" stop-color="#ffd27a"/><stop offset="1" stop-color="#ff7a1a"/></radialGradient></defs><path d="M80.0 57.0 Q100 49.0 120.0 57.0 L125.0 70.0 Q124.0 88.0 115.0 112 L115.0 130 Q100 136 85.0 130 L85.0 112 Q76.0 88.0 75.0 70.0 Z" fill="url(#steel)" stroke="#0b0d12" stroke-width="2.2" stroke-linejoin="round" stroke-linecap="round"/><path d="M100 54 L125.0 70 Q124.0 88.0 115.0 112 L100 112 Z" fill="#000" fill-opacity="0.22"/><path d="M100 56 L100 110" fill="none" stroke="#0b0d12" stroke-width="1.7600000000000002" stroke-opacity="0.7" stroke-linecap="round" stroke-linejoin="round"/><path d="M82.5 74 Q100 86.0 117.5 74" fill="none" stroke="#0b0d12" stroke-width="1.32" stroke-opacity="0.5" stroke-linecap="round" stroke-linejoin="round"/><path d="M87.0 116 L113.0 116 L111.0 170.0 L100 178.0 L89.0 170.0 Z" fill="url(#tabard)" stroke="#0b0d12" stroke-width="2.2" stroke-linejoin="round" stroke-linecap="round"/><path d="M89.0 168.0 L100 176.0 L111.0 168.0" fill="none" stroke="#c9a24a" stroke-width="1.6" stroke-opacity="1.0" stroke-linecap="round" stroke-linejoin="round"/><path d="M83.0 110 Q100 116 117.0 110 L117.0 118 Q100 124 83.0 118 Z" fill="url(#leather)" stroke="#0b0d12" stroke-width="2.2" stroke-linejoin="round" stroke-linecap="round"/><path d="M96.0 112 L104 112 L104 120 L96 120 Z" fill="url(#gold)" stroke="#0b0d12" stroke-width="1.2" stroke-linejoin="round" stroke-linecap="round"/><path d="M93.0 58 L107.0 58 L106.0 50 L94.0 50 Z" fill="url(#steelD)" stroke="#0b0d12" stroke-width="2.2" stroke-linejoin="round" stroke-linecap="round"/></svg>