<svg xmlns="http://www.w3.org/2000/svg" viewBox="0 0 200 250" width="200" height="250"><defs><filter id="blur" x="-50%" y="-50%" width="200%" height="200%"><feGaussianBlur stdDeviation="3"/></filter><linearGradient id="steel" x1="0" y1="0" x2="1" y2="1"><stop offset="0" stop-color="#eef2f6"/><stop offset="0.45" stop-color="#a9b4c0"/><stop offset="1" stop-color="#3c4550"/></linearGradient><linearGradient id="steelD" x1="0" y1="0" x2="1" y2="1"><stop offset="0" stop-color="#8a96a3"/><stop offset="1" stop-color="#262c34"/></linearGradient><linearGradient id="gold" x1="0" y1="0" x2="1" y2="1"><stop offset="0" stop-color="#fff0b0"/><stop offset="0.5" stop-color="#d4a84a"/><stop offset="1" stop-color="#6e4a12"/></linearGradient><linearGradient id="leather" x1="0" y1="0" x2="0" y2="1"><stop offset="0" stop-color="#6b4a30"/><stop offset="1" stop-color="#2a1a10"/></linearGradient><linearGradient id="robe" x1="0" y1="0" x2="0" y2="1"><stop offset="0" stop-color="#34438e"/><stop offset="1" stop-color="#0f1330"/></linearGradient><linearGradient id="robeD" x1="0" y1="0" x2="0" y2="1"><stop offset="0" stop-color="#222c66"/><stop offset="1" stop-color="#090b1e"/></linearGradient><linearGradient id="wood" x1="0" y1="0" x2="0" y2="1"><stop offset="0" stop-color="#7a5230"/><stop offset="1" stop-color="#2e1a0c"/></linearGradient><linearGradient id="crystal" x1="0" y1="0" x2="1" y2="1"><stop offset="0" stop-color="#e9fdff"/><stop offset="0.5" stop-color="#5fd8ff"/><stop offset="1" stop-color="#1a5aa8"/></linearGradient><radialGradient id="skin" cx="40%" cy="35%" r="70%"><stop offset="0" stop-color="#e8c3a0"/><stop offset="1" stop-color="#8a5a3c"/></radialGradient><linearGradient id="beard" x1="0" y1="0" x2="0" y2="1"><stop offset="0" stop-color="#ffffff"/><stop offset="1" stop-color="#a9a7b4"/></linearGradient></defs><path d="M74.0 77 Q100 69 126.0 77 L131.0 90 Q121.0 136.0 136.1 222 Q100 228 63.9 222 Q79.0 136.0 69.0 90 Z" fill="url(#robe)" stroke="#0b0d12" stroke-width="3.2" stroke-linejoin="round" stroke-linecap="round"/><path d="M100 74 L131.0 90 Q121.0 136.0 136.1 222 L100 226 Z" fill="#000" fill-opacity="0.28"/><path d="M100 86 L100 226" fill="none" stroke="#d4a84a" stroke-width="3.12" stroke-opacity="1.0" stroke-linecap="round" stroke-linejoin="round"/><path d="M96.1 148.0 L100 142.8 L103.9 148.0 L100 153.2 Z" fill="#ffe08a" stroke="#0b0d12" stroke-width="0.8" stroke-linejoin="round" stroke-linecap="round"/><path d="M96.1 166.0 L100 160.8 L103.9 166.0 L100 171.2 Z" fill="#ffe08a" stroke="#0b0d12" stroke-width="0.8" stroke-linejoin="round" stroke-linecap="round"/><path d="M96.1 184.0 L100 178.8 L103.9 184.0 L100 189.2 Z" fill="#ffe08a" stroke="#0b0d12" stroke-width="0.8" stroke-linejoin="round" stroke-linecap="round"/><path d="M96.1 202.0 L100 196.8 L103.9 202.0 L100 207.2 Z" fill="#ffe08a" stroke="#0b0d12" stroke-width="0.8" stroke-linejoin="round" stroke-linecap="round"/><path d="M64.8 221 Q100 227 135.2 221" fill="none" stroke="#d4a84a" stroke-width="2.8600000000000003" stroke-opacity="1.0" stroke-linecap="round" stroke-linejoin="round"/><path d="M80.0 133 Q100 139 120.0 133 L120.0 140 Q100 146 80.0 140 Z" fill="url(#leather)" stroke="#0b0d12" stroke-width="3.2" stroke-linejoin="round" stroke-linecap="round"/><circle cx="88.6" cy="148.0" r="3.9" fill="#5fd8ff" fill-opacity="0.9" filter="url(#blur)"/><circle cx="88.6" cy="148.0" r="2.9" fill="#bff4ff" stroke="#0b0d12" stroke-width="0.8" stroke-linejoin="round" stroke-linecap="round"/></svg>