<svg xmlns="http://www.w3.org/2000/svg" viewBox="0 0 200 250" width="200" height="250"><defs><filter id="blur" x="-50%" y="-50%" width="200%" height="200%"><feGaussianBlur stdDeviation="3"/></filter><linearGradient id="steel" x1="0" y1="0" x2="1" y2="1"><stop offset="0" stop-color="#eef2f6"/><stop offset="0.45" stop-color="#a9b4c0"/><stop offset="1" stop-color="#3c4550"/></linearGradient><linearGradient id="steelD" x1="0" y1="0" x2="1" y2="1"><stop offset="0" stop-color="#8a96a3"/><stop offset="1" stop-color="#262c34"/></linearGradient><linearGradient id="gold" x1="0" y1="0" x2="1" y2="1"><stop offset="0" stop-color="#fff0b0"/><stop offset="0.5" stop-color="#d4a84a"/><stop offset="1" stop-color="#6e4a12"/></linearGradient><linearGradient id="leather" x1="0" y1="0" x2="0" y2="1"><stop offset="0" stop-color="#6b4a30"/><stop offset="1" stop-color="#2a1a10"/></linearGradient><linearGradient id="robe" x1="0" y1="0" x2="0" y2="1"><stop offset="0" stop-color="#34438e"/><stop offset="1" stop-color="#0f1330"/></linearGradient><linearGradient id="robeD" x1="0" y1="0" x2="0" y2="1"><stop offset="0" stop-color="#222c66"/><stop offset="1" stop-color="#090b1e"/></linearGradient><linearGradient id="wood" x1="0" y1="0" x2="0" y2="1"><stop offset="0" stop-color="#7a5230"/><stop offset="1" stop-color="#2e1a0c"/></linearGradient><linearGradient id="crystal" x1="0" y1="0" x2="1" y2="1"><stop offset="0" stop-color="#e9fdff"/><stop offset="0.5" stop-color="#5fd8ff"/><stop offset="1" stop-color="#1a5aa8"/></linearGradient><radialGradient id="skin" cx="40%" cy="35%" r="70%"><stop offset="0" stop-color="#e8c3a0"/><stop offset="1" stop-color="#8a5a3c"/></radialGradient><linearGradient id="beard" x1="0" y1="0" x2="0" y2="1"><stop offset="0" stop-color="#ffffff"/><stop offset="1" stop-color="#a9a7b4"/></linearGradient></defs><path d="M72.0 66.0 Q68.9 86.0 67.7 96.0 Q67.6 106.0 66.0 112.0 Q65.5 118.0 63.9 127.0 L63.5 136.0 L80.5 136.0 Q80.9 118.0 81.2 112.0 Q80.4 106.0 82.8 96.0 Q84.1 86.0 85.6 76.0 L86.0 66.0 Z" fill="url(#robe)" stroke="#0b0d12" stroke-width="2.2" stroke-linejoin="round" stroke-linecap="round"/><path d="M63.0 134.0 L81.0 134.0 L83.0 145.0 L61.0 145.0 Z" fill="url(#robe)" stroke="#0b0d12" stroke-width="2.2" stroke-linejoin="round" stroke-linecap="round"/><path d="M61.0 145.0 L83.0 145.0" fill="none" stroke="#d4a84a" stroke-width="1.6" stroke-opacity="1.0" stroke-linecap="round" stroke-linejoin="round"/><circle cx="72.0" cy="149.0" r="4.6" fill="url(#skin)" stroke="#0b0d12" stroke-width="2.2" stroke-linejoin="round" stroke-linecap="round"/><circle cx="72.0" cy="147.0" r="8.0" fill="#5fd8ff" fill-opacity="0.6" filter="url(#blur)"/></svg>