<svg xmlns="http://www.w3.org/2000/svg" viewBox="0 0 200 250" width="200" height="250"><defs><filter id="blur" x="-50%" y="-50%" width="200%" height="200%"><feGaussianBlur stdDeviation="3"/></filter><linearGradient id="steel" x1="0" y1="0" x2="1" y2="1"><stop offset="0" stop-color="#eef2f6"/><stop offset="0.45" stop-color="#a9b4c0"/><stop offset="1" stop-color="#3c4550"/></linearGradient><linearGradient id="steelD" x1="0" y1="0" x2="1" y2="1"><stop offset="0" stop-color="#8a96a3"/><stop offset="1" stop-color="#262c34"/></linearGradient><linearGradient id="gold" x1="0" y1="0" x2="1" y2="1"><stop offset="0" stop-color="#fff0b0"/><stop offset="0.5" stop-color="#d4a84a"/><stop offset="1" stop-color="#6e4a12"/></linearGradient><linearGradient id="leather" x1="0" y1="0" x2="0" y2="1"><stop offset="0" stop-color="#6b4a30"/><stop offset="1" stop-color="#2a1a10"/></linearGradient><linearGradient id="tabard" x1="0" y1="0" x2="0" y2="1"><stop offset="0" stop-color="#b3261e"/><stop offset="1" stop-color="#4a0c0c"/></linearGradient><linearGradient id="cape" x1="0" y1="0" x2="0" y2="1"><stop offset="0" stop-color="#7a1616"/><stop offset="1" stop-color="#240505"/></linearGradient><linearGradient id="shieldred" x1="0" y1="0" x2="1" y2="1"><stop offset="0" stop-color="#9c1f1a"/><stop offset="1" stop-color="#3e0808"/></linearGradient><radialGradient id="visor" cx="40%" cy="35%" r="70%"><stop offset="0" stop-color="#ffd27a"/><stop offset="1" stop-color="#ff7a1a"/></radialGradient></defs><path d="M74.0 77.0 Q100 69.0 126.0 77.0 L131.0 90.0 Q130.0 110.0 119.0 136 L118.0 152 Q100 158 82.0 152 L81.0 136 Q70.0 110.0 69.0 90.0 Z" fill="url(#steel)" stroke="#0b0d12" stroke-width="3.2" stroke-linejoin="round" stroke-linecap="round"/><path d="M100 74 L131.0 90 Q130.0 110.0 119.0 136 L100 136 Z" fill="#000" fill-opacity="0.22"/><path d="M100 76 L100 134" fill="none" stroke="#0b0d12" stroke-width="2.5600000000000005" stroke-opacity="0.7" stroke-linecap="round" stroke-linejoin="round"/><path d="M78.3 94 Q100 112.6 121.7 94" fill="none" stroke="#0b0d12" stroke-width="1.92" stroke-opacity="0.5" stroke-linecap="round" stroke-linejoin="round"/><path d="M83.0 140 L117.0 140 L115.0 205.8 L100 216.2 L85.0 205.8 Z" fill="url(#tabard)" stroke="#0b0d12" stroke-width="3.2" stroke-linejoin="round" stroke-linecap="round"/><path d="M85.0 203.2 L100 213.6 L115.0 203.2" fill="none" stroke="#c9a24a" stroke-width="2.08" stroke-opacity="1.0" stroke-linecap="round" stroke-linejoin="round"/><path d="M79.0 134 Q100 140 121.0 134 L121.0 142 Q100 148 79.0 142 Z" fill="url(#leather)" stroke="#0b0d12" stroke-width="3.2" stroke-linejoin="round" stroke-linecap="round"/><path d="M96.0 136 L104 136 L104 144 L96 144 Z" fill="url(#gold)" stroke="#0b0d12" stroke-width="1.2" stroke-linejoin="round" stroke-linecap="round"/><path d="M90.9 78 L109.1 78 L107.8 70 L92.2 70 Z" fill="url(#steelD)" stroke="#0b0d12" stroke-width="3.2" stroke-linejoin="round" stroke-linecap="round"/></svg>