<svg xmlns="http://www.w3.org/2000/svg" viewBox="0 0 200 250" width="400" height="500"><defs><filter id="blur" x="-50%" y="-50%" width="200%" height="200%"><feGaussianBlur stdDeviation="3"/></filter><linearGradient id="steel" x1="0" y1="0" x2="1" y2="1"><stop offset="0" stop-color="#eef2f6"/><stop offset="0.45" stop-color="#a9b4c0"/><stop offset="1" stop-color="#3c4550"/></linearGradient><linearGradient id="steelD" x1="0" y1="0" x2="1" y2="1"><stop offset="0" stop-color="#8a96a3"/><stop offset="1" stop-color="#262c34"/></linearGradient><linearGradient id="gold" x1="0" y1="0" x2="1" y2="1"><stop offset="0" stop-color="#fff0b0"/><stop offset="0.5" stop-color="#d4a84a"/><stop offset="1" stop-color="#6e4a12"/></linearGradient><linearGradient id="leather" x1="0" y1="0" x2="0" y2="1"><stop offset="0" stop-color="#6b4a30"/><stop offset="1" stop-color="#2a1a10"/></linearGradient><linearGradient id="tabard" x1="0" y1="0" x2="0" y2="1"><stop offset="0" stop-color="#b3261e"/><stop offset="1" stop-color="#4a0c0c"/></linearGradient><linearGradient id="cape" x1="0" y1="0" x2="0" y2="1"><stop offset="0" stop-color="#7a1616"/><stop offset="1" stop-color="#240505"/></linearGradient><linearGradient id="shieldred" x1="0" y1="0" x2="1" y2="1"><stop offset="0" stop-color="#9c1f1a"/><stop offset="1" stop-color="#3e0808"/></linearGradient><radialGradient id="visor" cx="40%" cy="35%" r="70%"><stop offset="0" stop-color="#ffd27a"/><stop offset="1" stop-color="#ff7a1a"/></radialGradient></defs><ellipse cx="100" cy="240" rx="56" ry="8" fill="#000" fill-opacity=".4"/><path d="M77.0 60.0 Q52.5 151.0 66.2 234 L130.0 230 Q137.5 151.0 123.0 60.0 Z" fill="url(#cape)" stroke="#0b0d12" stroke-width="2.2" stroke-linejoin="round" stroke-linecap="round"/><path d="M80.0 84 Q67.5 151.0 73.8 230" fill="none" stroke="#000" stroke-width="2.0" stroke-opacity="0.35" stroke-linecap="round" stroke-linejoin="round"/><path d="M110.0 90 Q120.0 161.0 117.5 228" fill="none" stroke="#000" stroke-width="2.0" stroke-opacity="0.3" stroke-linecap="round" stroke-linejoin="round"/><path d="M80.0 118 Q77.0 151.5 80.0 185.0 Q78.0 197.2 79.8 220 L93.7 220 Q100.5 197.2 98.5 185.0 Q106.5 151.5 103.5 118 Z" fill="url(#steel)" stroke="#0b0d12" stroke-width="2.2" stroke-linejoin="round" stroke-linecap="round"/><path d="M88.6 124 L96.0 185.0 L93.7 220 L88.1 220 Z" fill="#000" fill-opacity="0.25"/><ellipse cx="89.2" cy="185.0" rx="9.8" ry="7.9" fill="url(#steel)" stroke="#0b0d12" stroke-width="2.2" stroke-linejoin="round" stroke-linecap="round"/><path d="M82.1 203.6 L91.4 203.6" fill="none" stroke="#0b0d12" stroke-width="1.54" stroke-opacity="0.6" stroke-linecap="round" stroke-linejoin="round"/><path d="M77.8 212 L76.8 238 L104.7 238 Q104.7 229 95.7 226 L95.7 212 Z" fill="url(#steelD)" stroke="#0b0d12" stroke-width="2.2" stroke-linejoin="round" stroke-linecap="round"/><path d="M96.5 118 Q93.5 151.5 101.5 185.0 Q99.5 197.2 106.3 220 L120.2 220 Q122.0 197.2 120.0 185.0 Q123.0 151.5 120.0 118 Z" fill="url(#steel)" stroke="#0b0d12" stroke-width="2.2" stroke-linejoin="round" stroke-linecap="round"/><path d="M115.1 124 L122.5 185.0 L120.2 220 L114.6 220 Z" fill="#000" fill-opacity="0.25"/><ellipse cx="110.8" cy="185.0" rx="9.8" ry="7.9" fill="url(#steel)" stroke="#0b0d12" stroke-width="2.2" stroke-linejoin="round" stroke-linecap="round"/><path d="M108.6 203.6 L117.9 203.6" fill="none" stroke="#0b0d12" stroke-width="1.54" stroke-opacity="0.6" stroke-linecap="round" stroke-linejoin="round"/><path d="M104.3 212 L103.3 238 L131.2 238 Q131.2 229 122.2 226 L122.2 212 Z" fill="url(#steelD)" stroke="#0b0d12" stroke-width="2.2" stroke-linejoin="round" stroke-linecap="round"/><path d="M80.0 57.0 Q100 49.0 120.0 57.0 L125.0 70.0 Q124.0 88.0 115.0 112 L115.0 130 Q100 136 85.0 130 L85.0 112 Q76.0 88.0 75.0 70.0 Z" fill="url(#steel)" stroke="#0b0d12" stroke-width="2.2" stroke-linejoin="round" stroke-linecap="round"/><path d="M100 54 L125.0 70 Q124.0 88.0 115.0 112 L100 112 Z" fill="#000" fill-opacity="0.22"/><path d="M100 56 L100 110" fill="none" stroke="#0b0d12" stroke-width="1.7600000000000002" stroke-opacity="0.7" stroke-linecap="round" stroke-linejoin="round"/><path d="M82.5 74 Q100 86.0 117.5 74" fill="none" stroke="#0b0d12" stroke-width="1.32" stroke-opacity="0.5" stroke-linecap="round" stroke-linejoin="round"/><path d="M87.0 116 L113.0 116 L111.0 170.0 L100 178.0 L89.0 170.0 Z" fill="url(#tabard)" stroke="#0b0d12" stroke-width="2.2" stroke-linejoin="round" stroke-linecap="round"/><path d="M89.0 168.0 L100 176.0 L111.0 168.0" fill="none" stroke="#c9a24a" stroke-width="1.6" stroke-opacity="1.0" stroke-linecap="round" stroke-linejoin="round"/><path d="M83.0 110 Q100 116 117.0 110 L117.0 118 Q100 124 83.0 118 Z" fill="url(#leather)" stroke="#0b0d12" stroke-width="2.2" stroke-linejoin="round" stroke-linecap="round"/><path d="M96.0 112 L104 112 L104 120 L96 120 Z" fill="url(#gold)" stroke="#0b0d12" stroke-width="1.2" stroke-linejoin="round" stroke-linecap="round"/><path d="M93.0 58 L107.0 58 L106.0 50 L94.0 50 Z" fill="url(#steelD)" stroke="#0b0d12" stroke-width="2.2" stroke-linejoin="round" stroke-linecap="round"/><path d="M86.5 48.1 L86.2 33.3 Q86.5 19.1 100.0 18.4 Q113.5 19.1 114.6 33.3 L113.8 48.1 Q100.0 52.9 86.5 48.1 Z" fill="url(#steel)" stroke="#0b0d12" stroke-width="2.2" stroke-linejoin="round" stroke-linecap="round"/><path d="M102.7 19.8 Q113.5 22.5 114.2 36.0 L113.5 48.1 Q106.8 49.5 104.0 49.5 Z" fill="#000" fill-opacity="0.22"/><circle cx="103.4" cy="35.3" r="9.4" fill="#ff9a3a" fill-opacity="0.55" filter="url(#blur)"/><path d="M89.9 33.6 L112.8 33.6 L112.8 36.7 L89.9 36.7 Z" fill="url(#visor)" stroke="#0b0d12" stroke-width="1.54" stroke-linejoin="round" stroke-linecap="round"/><path d="M100.7 36.7 L102.7 36.7 L102.7 45.5 L100.7 45.5 Z" fill="#1a1206" stroke="#0b0d12" stroke-width="1.1" stroke-linejoin="round" stroke-linecap="round"/><circle cx="107.4" cy="40.0" r="0.7" fill="#0b0d12" stroke="#0b0d12" stroke-width="0" stroke-linejoin="round" stroke-linecap="round"/><circle cx="107.4" cy="42.5" r="0.7" fill="#0b0d12" stroke="#0b0d12" stroke-width="0" stroke-linejoin="round" stroke-linecap="round"/><circle cx="107.4" cy="44.9" r="0.7" fill="#0b0d12" stroke="#0b0d12" stroke-width="0" stroke-linejoin="round" stroke-linecap="round"/><path d="M97.3 18.7 L97.3 50.9" fill="none" stroke="#c9a24a" stroke-width="1.4" stroke-opacity="0.9" stroke-linecap="round" stroke-linejoin="round"/><path d="M98.7 18.7 Q87.8 3.6 64.9 21.1 Q78.4 19.8 82.5 27.9 Q91.9 18.4 98.7 18.7 Z" fill="url(#tabard)" stroke="#0b0d12" stroke-width="2.2" stroke-linejoin="round" stroke-linecap="round"/><path d="M72.0 66.0 Q68.9 86.0 68.3 96.0 Q68.9 106.0 67.4 113.2 Q67.1 120.4 66.4 131.2 L67.0 142.0 L77.0 142.0 Q79.3 120.4 79.8 113.2 Q79.1 106.0 82.2 96.0 Q84.1 86.0 85.6 76.0 L86.0 66.0 Z" fill="url(#steel)" stroke="#0b0d12" stroke-width="2.2" stroke-linejoin="round" stroke-linecap="round"/><ellipse cx="74.0" cy="106.0" rx="5.5" ry="4.5" fill="url(#steel)" stroke="#0b0d12" stroke-width="2.2" stroke-linejoin="round" stroke-linecap="round"/><path d="M66.0 130.0 L78.0 130.0 L77.5 143.0 L66.5 143.0 Z" fill="url(#steelD)" stroke="#0b0d12" stroke-width="2.2" stroke-linejoin="round" stroke-linecap="round"/><circle cx="72.0" cy="147.0" r="5.2" fill="url(#steelD)" stroke="#0b0d12" stroke-width="2.2" stroke-linejoin="round" stroke-linecap="round"/><path d="M67.0 64.0 Q79.0 53.0 91.0 64.0 Q79.0 62.0 67.0 64.0 Z" fill="url(#steel)" stroke="#0b0d12" stroke-width="2.2" stroke-linejoin="round" stroke-linecap="round"/><path d="M69.0 69.0 Q79.0 58.0 89.0 69.0 Q79.0 67.0 69.0 69.0 Z" fill="url(#steel)" stroke="#0b0d12" stroke-width="2.2" stroke-linejoin="round" stroke-linecap="round"/><path d="M71.0 74.0 Q79.0 63.0 87.0 74.0 Q79.0 72.0 71.0 74.0 Z" fill="url(#steel)" stroke="#0b0d12" stroke-width="2.2" stroke-linejoin="round" stroke-linecap="round"/><path d="M70.0 62.0 Q77.0 55.0 83.0 58.0 Q77.0 61.0 70.0 62.0 Z" fill="#fff" fill-opacity="0.45"/><path d="M53.0 125.5 Q70.0 120.4 87.0 125.5 L85.6 145.0 Q80.2 163.0 70.0 172.0 Q59.8 163.0 54.4 145.0 Z" fill="url(#shieldred)" stroke="#0b0d12" stroke-width="2.2" stroke-linejoin="round" stroke-linecap="round"/><path d="M53.0 125.5 Q70.0 120.4 87.0 125.5 L85.6 145.0 Q80.2 163.0 70.0 172.0 Q59.8 163.0 54.4 145.0 Z" fill="none" stroke="#c9a24a" stroke-width="3.5200000000000005" stroke-linejoin="round" stroke-linecap="round"/><path d="M59.8 143.5 L70.0 133.0 L80.2 143.5" fill="none" stroke="#e8c35a" stroke-width="3.0" stroke-opacity="1.0" stroke-linecap="round" stroke-linejoin="round"/><circle cx="70.0" cy="152.5" r="4.5" fill="url(#gold)" stroke="#0b0d12" stroke-width="1.2" stroke-linejoin="round" stroke-linecap="round"/><path d="M56.4 127.0 Q64.9 123.4 70.0 123.4 L59.8 151.0 Z" fill="#fff" fill-opacity="0.18"/><g transform="rotate(24 128.0 146.0)"><path d="M124.6 140.0 L124.6 70.0 L128.0 62.0 L131.4 70.0 L131.4 140.0 Z" fill="url(#steel)" stroke="#0b0d12" stroke-width="2.2" stroke-linejoin="round" stroke-linecap="round"/><path d="M128.0 136.0 L128.0 66.0" fill="none" stroke="#ffffff" stroke-width="1.1" stroke-opacity="0.7" stroke-linecap="round" stroke-linejoin="round"/><path d="M116.0 137.0 Q128.0 142.0 140.0 137.0 L140.0 142.0 Q128.0 147.0 116.0 142.0 Z" fill="url(#gold)" stroke="#0b0d12" stroke-width="2.2" stroke-linejoin="round" stroke-linecap="round"/><path d="M126.0 142.0 L130.0 142.0 L130.0 155.0 L126.0 155.0 Z" fill="#3a2616" stroke="#0b0d12" stroke-width="2.2" stroke-linejoin="round" stroke-linecap="round"/><circle cx="128.0" cy="157.0" r="3.0" fill="url(#gold)" stroke="#0b0d12" stroke-width="2.2" stroke-linejoin="round" stroke-linecap="round"/></g><path d="M114.0 66.0 Q115.9 86.0 117.8 96.0 Q120.9 106.0 120.2 113.2 Q120.7 120.4 121.2 131.2 L123.0 142.0 L133.0 142.0 Q132.9 120.4 132.6 113.2 Q131.1 106.0 131.7 96.0 Q131.1 86.0 130.1 76.0 L128.0 66.0 Z" fill="url(#steel)" stroke="#0b0d12" stroke-width="2.2" stroke-linejoin="round" stroke-linecap="round"/><ellipse cx="126.0" cy="106.0" rx="5.5" ry="4.5" fill="url(#steel)" stroke="#0b0d12" stroke-width="2.2" stroke-linejoin="round" stroke-linecap="round"/><path d="M122.0 130.0 L134.0 130.0 L133.5 143.0 L122.5 143.0 Z" fill="url(#steelD)" stroke="#0b0d12" stroke-width="2.2" stroke-linejoin="round" stroke-linecap="round"/><circle cx="128.0" cy="147.0" r="5.2" fill="url(#steelD)" stroke="#0b0d12" stroke-width="2.2" stroke-linejoin="round" stroke-linecap="round"/><path d="M109.0 64.0 Q121.0 53.0 133.0 64.0 Q121.0 62.0 109.0 64.0 Z" fill="url(#steel)" stroke="#0b0d12" stroke-width="2.2" stroke-linejoin="round" stroke-linecap="round"/><path d="M111.0 69.0 Q121.0 58.0 131.0 69.0 Q121.0 67.0 111.0 69.0 Z" fill="url(#steel)" stroke="#0b0d12" stroke-width="2.2" stroke-linejoin="round" stroke-linecap="round"/><path d="M113.0 74.0 Q121.0 63.0 129.0 74.0 Q121.0 72.0 113.0 74.0 Z" fill="url(#steel)" stroke="#0b0d12" stroke-width="2.2" stroke-linejoin="round" stroke-linecap="round"/><path d="M112.0 62.0 Q119.0 55.0 125.0 58.0 Q119.0 61.0 112.0 62.0 Z" fill="#fff" fill-opacity="0.45"/></svg>