<svg xmlns="http://www.w3.org/2000/svg" viewBox="0 0 200 250" width="200" height="250"><defs><filter id="blur" x="-50%" y="-50%" width="200%" height="200%"><feGaussianBlur stdDeviation="3"/></filter><linearGradient id="steel" x1="0" y1="0" x2="1" y2="1"><stop offset="0" stop-color="#eef2f6"/><stop offset="0.45" stop-color="#a9b4c0"/><stop offset="1" stop-color="#3c4550"/></linearGradient><linearGradient id="steelD" x1="0" y1="0" x2="1" y2="1"><stop offset="0" stop-color="#8a96a3"/><stop offset="1" stop-color="#262c34"/></linearGradient><linearGradient id="gold" x1="0" y1="0" x2="1" y2="1"><stop offset="0" stop-color="#fff0b0"/><stop offset="0.5" stop-color="#d4a84a"/><stop offset="1" stop-color="#6e4a12"/></linearGradient><linearGradient id="leather" x1="0" y1="0" x2="0" y2="1"><stop offset="0" stop-color="#6b4a30"/><stop offset="1" stop-color="#2a1a10"/></linearGradient><linearGradient id="fur" x1="0" y1="0" x2="0" y2="1"><stop offset="0" stop-color="#7a4428"/><stop offset="1" stop-color="#2a120a"/></linearGradient><radialGradient id="skin" cx="40%" cy="35%" r="70%"><stop offset="0" stop-color="#9a5a3a"/><stop offset="1" stop-color="#3a1a0e"/></radialGradient><linearGradient id="horn" x1="0" y1="0" x2="1" y2="1"><stop offset="0" stop-color="#f4ead2"/><stop offset="1" stop-color="#6e5a3a"/></linearGradient><linearGradient id="wood" x1="0" y1="0" x2="0" y2="1"><stop offset="0" stop-color="#5a3a22"/><stop offset="1" stop-color="#1e1008"/></linearGradient><linearGradient id="loin" x1="0" y1="0" x2="0" y2="1"><stop offset="0" stop-color="#3a3f46"/><stop offset="1" stop-color="#121418"/></linearGradient></defs><g transform="translate(100 250) scale(1.06) translate(-100 -250)"><path d="M70.0 140 Q67.0 168.0 70.9 196.0 Q68.9 204.4 71.8 220 L92.5 220 Q101.9 204.4 99.9 196.0 Q110.2 168.0 107.2 140 Z" fill="url(#fur)" stroke="#0b0d12" stroke-width="3.2" stroke-linejoin="round" stroke-linecap="round"/><path d="M85.0 146 L96.6 196.0 L92.5 220 L84.2 220 Z" fill="#000" fill-opacity="0.28"/><path d="M73.4 186.0 l3 5 m4 -6 l3 5" fill="none" stroke="#0b0d12" stroke-width="1.56" stroke-opacity="0.5" stroke-linecap="round" stroke-linejoin="round"/><path d="M68.8 218 L100.3 218 L102.9 238 L67.8 238 Z" fill="#1a1410" stroke="#0b0d12" stroke-width="3.2" stroke-linejoin="round" stroke-linecap="round"/><path d="M83.1 220 L83.1 238" fill="none" stroke="#000" stroke-width="1.4" stroke-opacity="0.6" stroke-linecap="round" stroke-linejoin="round"/></g></svg>