<svg xmlns="http://www.w3.org/2000/svg" viewBox="0 0 200 250" width="200" height="250"><defs><filter id="blur" x="-50%" y="-50%" width="200%" height="200%"><feGaussianBlur stdDeviation="3"/></filter><linearGradient id="steel" x1="0" y1="0" x2="1" y2="1"><stop offset="0" stop-color="#eef2f6"/><stop offset="0.45" stop-color="#a9b4c0"/><stop offset="1" stop-color="#3c4550"/></linearGradient><linearGradient id="steelD" x1="0" y1="0" x2="1" y2="1"><stop offset="0" stop-color="#8a96a3"/><stop offset="1" stop-color="#262c34"/></linearGradient><linearGradient id="gold" x1="0" y1="0" x2="1" y2="1"><stop offset="0" stop-color="#fff0b0"/><stop offset="0.5" stop-color="#d4a84a"/><stop offset="1" stop-color="#6e4a12"/></linearGradient><linearGradient id="leather" x1="0" y1="0" x2="0" y2="1"><stop offset="0" stop-color="#6b4a30"/><stop offset="1" stop-color="#2a1a10"/></linearGradient><linearGradient id="fur" x1="0" y1="0" x2="0" y2="1"><stop offset="0" stop-color="#7a4428"/><stop offset="1" stop-color="#2a120a"/></linearGradient><radialGradient id="skin" cx="40%" cy="35%" r="70%"><stop offset="0" stop-color="#9a5a3a"/><stop offset="1" stop-color="#3a1a0e"/></radialGradient><linearGradient id="horn" x1="0" y1="0" x2="1" y2="1"><stop offset="0" stop-color="#f4ead2"/><stop offset="1" stop-color="#6e5a3a"/></linearGradient><linearGradient id="wood" x1="0" y1="0" x2="0" y2="1"><stop offset="0" stop-color="#5a3a22"/><stop offset="1" stop-color="#1e1008"/></linearGradient><linearGradient id="loin" x1="0" y1="0" x2="0" y2="1"><stop offset="0" stop-color="#3a3f46"/><stop offset="1" stop-color="#121418"/></linearGradient></defs><g transform="translate(100 250) scale(1.06) translate(-100 -250)"><path d="M66.2 77.0 Q100 69.0 133.8 77.0 L138.8 90.0 Q137.8 110.0 122.8 136 L120.7 152 Q100 158 79.3 152 L77.2 136 Q62.2 110.0 61.2 90.0 Z" fill="url(#skin)" stroke="#0b0d12" stroke-width="3.2" stroke-linejoin="round" stroke-linecap="round"/><path d="M100 72 L138.8 90 Q137.8 110.0 122.8 136 L100 136 Z" fill="#000" fill-opacity="0.25"/><path d="M70.9 102.2 Q88.4 112.6 100 102.2 Q111.6 112.6 129.1 102.2" fill="none" stroke="#0b0d12" stroke-width="1.8199999999999998" stroke-opacity="0.55" stroke-linecap="round" stroke-linejoin="round"/><path d="M92.2 117.8 L107.8 117.8" fill="none" stroke="#0b0d12" stroke-width="1.4300000000000002" stroke-opacity="0.4" stroke-linecap="round" stroke-linejoin="round"/><path d="M92.2 129.5 L107.8 129.5" fill="none" stroke="#0b0d12" stroke-width="1.4300000000000002" stroke-opacity="0.4" stroke-linecap="round" stroke-linejoin="round"/><path d="M92.2 141.2 L107.8 141.2" fill="none" stroke="#0b0d12" stroke-width="1.4300000000000002" stroke-opacity="0.4" stroke-linecap="round" stroke-linejoin="round"/><path d="M100 104.8 L100 134" fill="none" stroke="#0b0d12" stroke-width="1.4300000000000002" stroke-opacity="0.45" stroke-linecap="round" stroke-linejoin="round"/><path d="M65.2 84 L76.8 80 L124.8 134 L116.8 140 Z" fill="url(#leather)" stroke="#0b0d12" stroke-width="3.2" stroke-linejoin="round" stroke-linecap="round"/><circle cx="82.6" cy="97.0" r="2.3" fill="#8a8f96" stroke="#0b0d12" stroke-width="0.8" stroke-linejoin="round" stroke-linecap="round"/><circle cx="96.0" cy="110.0" r="2.3" fill="#8a8f96" stroke="#0b0d12" stroke-width="0.8" stroke-linejoin="round" stroke-linecap="round"/><circle cx="109.4" cy="123.0" r="2.3" fill="#8a8f96" stroke="#0b0d12" stroke-width="0.8" stroke-linejoin="round" stroke-linecap="round"/><path d="M75.2 134 Q100 140 124.8 134 L124.8 143 Q100 149 75.2 143 Z" fill="url(#leather)" stroke="#0b0d12" stroke-width="3.2" stroke-linejoin="round" stroke-linecap="round"/><path d="M80.2 142 L119.8 142 L116.8 192.8 L83.2 192.8 Z" fill="url(#loin)" stroke="#0b0d12" stroke-width="3.2" stroke-linejoin="round" stroke-linecap="round"/><circle cx="100.0" cy="139.0" r="5.5" fill="#8a8f96" stroke="#0b0d12" stroke-width="3.2" stroke-linejoin="round" stroke-linecap="round"/></g></svg>